<svg width="172" height="37" viewBox="0 0 172 37" fill="none" xmlns="http://www.w3.org/2000/svg">
<path d="M18.4287 26.5216L27.9194 32.2499L25.4008 21.4538L33.7858 14.1899L22.744 13.2531L18.4287 3.07129L14.1133 13.2531L3.07153 14.1899L11.4565 21.4538L8.93796 32.2499L18.4287 26.5216Z" fill="#FFCB2F"/>
<path d="M50.6787 26.5216L60.1694 32.2499L57.6508 21.4538L66.0358 14.1899L54.994 13.2531L50.6787 3.07129L46.3633 13.2531L35.3215 14.1899L43.7065 21.4538L41.188 32.2499L50.6787 26.5216Z" fill="#FFCB2F"/>
<path d="M84.4643 26.5216L93.955 32.2499L91.4365 21.4538L99.8215 14.1899L88.7797 13.2531L84.4643 3.07129L80.149 13.2531L69.1072 14.1899L77.4922 21.4538L74.9736 32.2499L84.4643 26.5216Z" fill="#FFCB2F"/>
<path d="M119.786 26.5216L129.277 32.2499L126.758 21.4538L135.143 14.1899L124.101 13.2531L119.786 3.07129L115.47 13.2531L104.429 14.1899L112.814 21.4538L110.295 32.2499L119.786 26.5216Z" fill="#FFCB2F"/>
<path d="M153.571 26.5216L163.062 32.2499L160.544 21.4538L168.929 14.1899L157.887 13.2531L153.571 3.07129L149.256 13.2531L138.214 14.1899L146.599 21.4538L144.081 32.2499L153.571 26.5216Z" fill="#FFCB2F"/>
</svg>
