<svg width="193" height="57" viewBox="0 0 193 57" fill="none" xmlns="http://www.w3.org/2000/svg">
<g clip-path="url(#clip0_414_2358)">
<path fill-rule="evenodd" clip-rule="evenodd" d="M185.849 57H7.15078C3.20968 57 0 53.7875 0 49.875V7.125C0 3.19825 3.20968 0 7.15078 0H185.849C189.787 0 193 3.19825 193 7.125V49.875C193 53.7875 189.787 57 185.849 57Z" fill="black"/>
<path fill-rule="evenodd" clip-rule="evenodd" d="M185.849 1.14071C189.155 1.14071 191.86 3.8308 191.86 7.125V49.875C191.86 53.1692 189.173 55.8593 185.849 55.8593H7.15078C3.84523 55.8593 1.13972 53.1692 1.13972 49.875V7.125C1.13972 3.8308 3.82748 1.14071 7.15078 1.14071H185.849ZM185.849 0H7.15078C3.20968 0 0 3.21247 0 7.125V49.875C0 53.8017 3.20968 57 7.15078 57H185.849C189.787 57 193 53.8017 193 49.875V7.125C193 3.21247 189.787 0 185.849 0Z" fill="black"/>
<path d="M101.673 18.8551C100.384 18.8551 99.2979 18.4038 98.4387 17.5154C97.5865 16.6519 97.1108 15.4614 97.1321 14.2461C97.1321 12.949 97.5723 11.851 98.4387 10.9803C99.2943 10.0919 100.381 9.64062 101.67 9.64062C102.944 9.64062 104.031 10.0919 104.904 10.9803C105.77 11.8794 106.211 12.9775 106.211 14.2461C106.197 15.5467 105.756 16.6448 104.904 17.5119C104.048 18.4074 102.962 18.8551 101.673 18.8551ZM63.3241 18.8551C62.0636 18.8551 60.9701 18.4109 60.0754 17.5332C59.1877 16.659 58.7368 15.5538 58.7368 14.2497C58.7368 12.9455 59.1877 11.8403 60.0754 10.9661C60.9523 10.0884 62.0459 9.64418 63.3241 9.64418C63.949 9.64418 64.5561 9.76856 65.1384 10.0209C65.71 10.2661 66.1751 10.6001 66.5195 11.0088L66.6048 11.1118L65.6426 12.0571L65.5431 11.9398C64.9999 11.2931 64.2721 10.9768 63.3099 10.9768C62.4507 10.9768 61.7015 11.2824 61.0837 11.8865C60.4624 12.4942 60.1464 13.2902 60.1464 14.2532C60.1464 15.2162 60.4624 16.0123 61.0837 16.6199C61.7015 17.224 62.4507 17.5297 63.3099 17.5297C64.2259 17.5297 64.9964 17.224 65.5964 16.6199C65.9515 16.2646 66.1716 15.7671 66.2497 15.1381H63.1643V13.809H67.574L67.5918 13.9298C67.6237 14.1537 67.6557 14.3847 67.6557 14.5979C67.6557 15.8239 67.2865 16.8154 66.555 17.5474C65.7242 18.4145 64.6378 18.8551 63.3241 18.8551ZM114.313 18.6668H112.953L108.788 11.9967L108.824 13.1978V18.6633H107.464V9.83252H109.016L109.058 9.90004L112.974 16.1828L112.939 14.9853V9.83252H114.313V18.6668ZM91.4548 18.6668H90.0772V11.1616H87.6877V9.83252H93.8407V11.1616H91.4512V18.6668H91.4548ZM86.5657 18.6668H85.1917V9.83252H86.5657V18.6668ZM78.8434 18.6668H77.4693V11.1616H75.0798V9.83252H81.2329V11.1616H78.8434V18.6668ZM74.21 18.6526H68.941V9.83252H74.21V11.1616H70.3186V13.5851H73.83V14.9H70.3186V17.3235H74.21V18.6526ZM99.447 16.6022C100.061 17.2169 100.807 17.5261 101.673 17.5261C102.564 17.5261 103.292 17.224 103.899 16.6022C104.503 15.998 104.808 15.2056 104.808 14.2497C104.808 13.2937 104.503 12.4977 103.903 11.8972C103.289 11.2824 102.54 10.9732 101.677 10.9732C100.786 10.9732 100.058 11.2753 99.4541 11.8972C98.8505 12.5013 98.5452 13.2937 98.5452 14.2497C98.5452 15.2056 98.847 16.0016 99.447 16.6022Z" fill="white"/>
<path fill-rule="evenodd" clip-rule="evenodd" d="M97.0049 31.002C93.6496 31.002 90.9299 33.55 90.9299 37.0645C90.9299 40.547 93.6673 43.127 97.0049 43.127C100.36 43.127 103.08 40.5613 103.08 37.0645C103.08 33.55 100.36 31.002 97.0049 31.002ZM97.0049 40.7247C95.1692 40.7247 93.5892 39.2038 93.5892 37.0503C93.5892 34.8648 95.1728 33.3758 97.0049 33.3758C98.8405 33.3758 100.42 34.8648 100.42 37.0503C100.424 39.218 98.8405 40.7247 97.0049 40.7247ZM83.7507 31.002C80.3954 31.002 77.6757 33.55 77.6757 37.0645C77.6757 40.547 80.4132 43.127 83.7507 43.127C87.1059 43.127 89.8257 40.5613 89.8257 37.0645C89.8257 33.55 87.1024 31.002 83.7507 31.002ZM83.7507 40.7247C81.9151 40.7247 80.3351 39.2038 80.3351 37.0503C80.3351 34.8648 81.9186 33.3758 83.7507 33.3758C85.5863 33.3758 87.1663 34.8648 87.1663 37.0503C87.1663 39.218 85.5863 40.7247 83.7507 40.7247ZM67.9792 32.8535V35.4192H74.1323C73.9441 36.8584 73.4683 37.9209 72.7405 38.6494C71.8386 39.552 70.4468 40.5328 67.9934 40.5328C64.2121 40.5328 61.2545 37.4767 61.2545 33.6921C61.2545 29.9075 64.2121 26.8514 67.9934 26.8514C70.0349 26.8514 71.5226 27.6581 72.6268 28.6886L74.4447 26.8692C72.9109 25.398 70.8693 24.2715 68.0076 24.2715C62.8203 24.2715 58.4673 28.5003 58.4673 33.6779C58.4673 38.8697 62.8167 43.0843 68.0076 43.0843C70.809 43.0843 72.9109 42.1675 74.5725 40.4404C76.2661 38.7454 76.8023 36.3538 76.8023 34.4242C76.8023 33.8236 76.7561 33.2835 76.6603 32.825H67.9756C67.9792 32.8215 67.9792 32.8535 67.9792 32.8535ZM132.489 34.8506C131.981 33.4896 130.447 30.9878 127.302 30.9878C124.184 30.9878 121.592 33.4434 121.592 37.0503C121.592 40.4546 124.156 43.1128 127.603 43.1128C130.373 43.1128 131.985 41.4177 132.649 40.4227L130.593 39.0439C129.911 40.0566 128.963 40.7212 127.618 40.7212C126.258 40.7212 125.306 40.1028 124.674 38.8839L132.773 35.5258C132.773 35.5293 132.489 34.8506 132.489 34.8506ZM124.23 36.8762C124.166 34.5343 126.048 33.3439 127.394 33.3439C128.456 33.3439 129.34 33.8662 129.641 34.6267L124.23 36.8762ZM117.651 42.7503H120.311V24.9396H117.651V42.7503ZM113.284 32.3489H113.188C112.588 31.6346 111.448 30.9878 109.993 30.9878C106.971 30.9878 104.188 33.6495 104.188 37.0681C104.188 40.4724 106.957 43.1021 109.993 43.1021C111.431 43.1021 112.588 42.4518 113.188 41.7233H113.284V42.5939C113.284 44.9073 112.048 46.1546 110.057 46.1546C108.427 46.1546 107.415 44.982 107.003 44.0012L104.692 44.9677C105.356 46.5669 107.127 48.5462 110.053 48.5462C113.17 48.5462 115.812 46.709 115.812 42.2279V31.3503H113.298V32.3489C113.302 32.3489 113.284 32.3489 113.284 32.3489ZM110.231 40.7247C108.395 40.7247 106.861 39.1896 106.861 37.0681C106.861 34.9288 108.395 33.3794 110.231 33.3794C112.048 33.3794 113.458 34.9465 113.458 37.0681C113.476 39.1896 112.052 40.7247 110.231 40.7247ZM144.941 24.9396H138.582V42.7503H141.241V36.0055H144.944C147.888 36.0055 150.781 33.8698 150.781 30.4797C150.781 27.0895 147.898 24.9396 144.941 24.9396ZM145.019 33.518H141.237V27.4058H145.019C147.011 27.4058 148.136 29.0511 148.136 30.4619C148.136 31.8585 146.996 33.518 145.019 33.518ZM161.44 30.97C159.509 30.97 157.517 31.8265 156.693 33.6921L159.051 34.6729C159.558 33.6921 160.489 33.3581 161.472 33.3581C162.85 33.3581 164.241 34.1825 164.273 35.6537V35.8421C163.798 35.572 162.754 35.1598 161.504 35.1598C158.958 35.1598 156.377 36.5528 156.377 39.1647C156.377 41.5563 158.465 43.0914 160.79 43.0914C162.576 43.0914 163.56 42.2848 164.174 41.3502H164.27V42.729H166.833V35.906C166.833 32.7291 164.476 30.97 161.44 30.97ZM161.106 40.7247C160.236 40.7247 159.019 40.2983 159.019 39.2038C159.019 37.825 160.538 37.3026 161.834 37.3026C163.006 37.3026 163.56 37.5549 164.256 37.9032C164.064 39.5023 162.715 40.7105 161.106 40.7247ZM176.185 31.3503L173.132 39.0758H173.036L169.873 31.3503H167.011L171.758 42.1497L169.052 48.1518H171.822L179.125 31.3503H176.185ZM152.248 42.7503H154.907V24.9396H152.248V42.7503Z" fill="white"/>
<path fill-rule="evenodd" clip-rule="evenodd" d="M14.8556 10.7356C14.4437 11.1798 14.2058 11.8585 14.2058 12.7469V44.2569C14.2058 45.1453 14.4437 45.824 14.8698 46.2504L14.9798 46.3464L32.6189 28.692V28.2976L14.9656 10.6396L14.8556 10.7356Z" fill="url(#paint0_linear_414_2358)"/>
<path fill-rule="evenodd" clip-rule="evenodd" d="M38.4878 34.5952L32.6045 28.7068V28.2946L38.4878 22.4062L38.6156 22.4844L45.5747 26.4432C47.5665 27.5661 47.5665 29.4211 45.5747 30.5582L38.6156 34.517L38.4878 34.5952Z" fill="url(#paint1_linear_414_2358)"/>
<path fill-rule="evenodd" clip-rule="evenodd" d="M38.6159 34.5163L32.6048 28.5L14.8557 46.2645C15.5055 46.961 16.5955 47.0392 17.8133 46.3605L38.6159 34.5163Z" fill="url(#paint2_linear_414_2358)"/>
<path fill-rule="evenodd" clip-rule="evenodd" d="M38.616 22.484L17.8134 10.6575C16.5956 9.96103 15.502 10.057 14.8558 10.7535L32.605 28.5002L38.616 22.484Z" fill="url(#paint3_linear_414_2358)"/>
<path opacity="0.2" fill-rule="evenodd" clip-rule="evenodd" d="M38.4875 34.3877L17.8269 46.1359C16.6729 46.8004 15.6433 46.7542 14.9793 46.1501L14.8693 46.2603L14.9793 46.3562C15.6433 46.9568 16.6729 47.0065 17.8269 46.342L38.6296 34.5156L38.4875 34.3877Z" fill="black"/>
<path opacity="0.12" fill-rule="evenodd" clip-rule="evenodd" d="M45.574 30.3514L38.4694 34.3883L38.5972 34.5163L45.5562 30.5575C46.5539 29.989 47.0439 29.2427 47.0439 28.5C46.9835 29.1823 46.4758 29.8291 45.574 30.3514Z" fill="black"/>
<path opacity="0.25" fill-rule="evenodd" clip-rule="evenodd" d="M17.8134 10.864L45.575 26.6492C46.4769 27.1573 46.9846 27.8219 47.0627 28.5006C47.0627 27.7579 46.5727 27.0116 45.575 26.443L17.8134 10.6579C15.8215 9.51718 14.2061 10.4695 14.2061 12.7474V12.9535C14.2061 10.6721 15.8215 9.7375 17.8134 10.864Z" fill="white"/>
</g>
<defs>
<linearGradient id="paint0_linear_414_2358" x1="31.0367" y1="12.407" x2="2.77872" y2="19.9298" gradientUnits="userSpaceOnUse">
<stop stop-color="#00A0FF"/>
<stop offset="0.00657" stop-color="#00A1FF"/>
<stop offset="0.2601" stop-color="#00BEFF"/>
<stop offset="0.5122" stop-color="#00D2FF"/>
<stop offset="0.7604" stop-color="#00DFFF"/>
<stop offset="1" stop-color="#00E3FF"/>
</linearGradient>
<linearGradient id="paint1_linear_414_2358" x1="48.1722" y1="28.5008" x2="13.7214" y2="28.5008" gradientUnits="userSpaceOnUse">
<stop stop-color="#FFE000"/>
<stop offset="0.4087" stop-color="#FFBD00"/>
<stop offset="0.7754" stop-color="#FFA500"/>
<stop offset="1" stop-color="#FF9C00"/>
</linearGradient>
<linearGradient id="paint2_linear_414_2358" x1="35.3473" y1="31.7737" x2="12.6355" y2="69.9665" gradientUnits="userSpaceOnUse">
<stop stop-color="#FF3A44"/>
<stop offset="1" stop-color="#C31162"/>
</linearGradient>
<linearGradient id="paint3_linear_414_2358" x1="10.3864" y1="0.255025" x2="20.5191" y2="17.3125" gradientUnits="userSpaceOnUse">
<stop stop-color="#32A071"/>
<stop offset="0.0685" stop-color="#2DA771"/>
<stop offset="0.4762" stop-color="#15CF74"/>
<stop offset="0.8009" stop-color="#06E775"/>
<stop offset="1" stop-color="#00F076"/>
</linearGradient>
<clipPath id="clip0_414_2358">
<rect width="193" height="57" fill="white"/>
</clipPath>
</defs>
</svg>
