<svg width="192" height="65" viewBox="0 0 192 65" fill="none" xmlns="http://www.w3.org/2000/svg">
<g clip-path="url(#clip0_414_2323)">
<path d="M176.71 0.00021125H15.2983C14.7099 0.00021125 14.1286 0.00021125 13.5418 0.00346125C13.0506 0.00671125 12.5633 0.0161525 12.0674 0.0240988C10.99 0.0369392 9.91513 0.132935 8.85214 0.311253C7.79065 0.493452 6.76241 0.836949 5.80219 1.33013C4.84316 1.82748 3.96686 2.47373 3.20508 3.24545C2.43931 4.015 1.80098 4.90449 1.31464 5.87972C0.826955 6.85301 0.488793 7.89599 0.311833 8.97262C0.13319 10.0479 0.0370612 11.1356 0.024308 12.2259C0.00941837 12.7241 0.00784596 13.224 0 13.7223V51.2829C0.00784596 51.7875 0.00941837 52.2763 0.024308 52.781C0.0370651 53.8713 0.133194 54.9589 0.311833 56.0341C0.488304 57.1114 0.826487 58.1549 1.31464 59.1286C1.80076 60.1007 2.43918 60.9866 3.20508 61.7518C3.96397 62.527 4.84084 63.1737 5.80219 63.6672C6.7624 64.1617 7.79053 64.5073 8.85214 64.6923C9.91531 64.8692 10.9901 64.9652 12.0674 64.9796C12.5633 64.9906 13.0506 64.997 13.5418 64.997C14.1286 65.0002 14.71 65.0002 15.2983 65.0002H176.71C177.287 65.0002 177.873 65.0002 178.45 64.997C178.938 64.997 179.44 64.9906 179.929 64.9796C181.004 64.966 182.077 64.8699 183.138 64.6923C184.203 64.506 185.235 64.1605 186.199 63.6672C187.16 63.1734 188.036 62.5267 188.794 61.7518C189.558 60.9836 190.198 60.0983 190.69 59.1286C191.175 58.1542 191.51 57.1107 191.683 56.0341C191.862 54.9587 191.962 53.8714 191.981 52.781C191.987 52.2763 191.987 51.7875 191.987 51.2829C192 50.6926 192 50.1055 192 49.5055V15.4964C192 14.9013 192 14.311 191.987 13.7223C191.987 13.224 191.987 12.7241 191.981 12.2258C191.962 11.1354 191.862 10.048 191.683 8.97255C191.509 7.89654 191.174 6.85365 190.69 5.87966C189.7 3.92491 188.129 2.33375 186.199 1.32998C185.235 0.838008 184.203 0.494602 183.138 0.311106C182.077 0.132003 181.004 0.0359739 179.929 0.0238713C179.44 0.0159413 178.938 0.00641875 178.45 0.00325C177.873 0 177.287 0 176.71 0V0.00021125Z" fill="black"/>
<path d="M13.5496 63.5781C13.0607 63.5781 12.5837 63.5718 12.0986 63.5607C11.0939 63.5475 10.0915 63.4589 9.09961 63.2957C8.17477 63.1344 7.27884 62.8343 6.44139 62.4054C5.61161 61.98 4.85479 61.4222 4.19991 60.7534C3.53556 60.0925 2.98245 59.3259 2.56251 58.4841C2.13795 57.6368 1.84412 56.7286 1.69127 55.7911C1.52621 54.7838 1.4369 53.7653 1.42412 52.7443C1.41395 52.4015 1.40063 51.2605 1.40063 51.2605V13.7221C1.40063 13.7221 1.41482 12.5985 1.4242 12.2684C1.43644 11.249 1.52523 10.2321 1.6898 9.22631C1.84293 8.28628 2.13698 7.37547 2.56177 6.5254C2.98017 5.68416 3.5302 4.91702 4.19056 4.25373C4.85017 3.58414 5.60941 3.02348 6.4406 2.59222C7.27613 2.16465 8.17036 1.86669 9.09334 1.70831C10.0884 1.54348 11.0943 1.45437 12.1026 1.44172L13.5503 1.42188H178.442L179.907 1.44251C180.906 1.45454 181.903 1.54286 182.888 1.70672C183.821 1.86708 184.724 2.16713 185.569 2.59698C187.235 3.4661 188.59 4.84114 189.444 6.52936C189.862 7.37356 190.152 8.27695 190.303 9.20886C190.47 10.2229 190.563 11.2478 190.582 12.2756C190.587 12.7358 190.587 13.2301 190.587 13.7221C190.599 14.3314 190.599 14.9114 190.599 15.4962V49.5053C190.599 50.0957 190.599 50.6717 190.587 51.2525C190.587 51.781 190.587 52.265 190.58 52.7633C190.562 53.7727 190.47 54.7793 190.306 55.7752C190.156 56.7194 189.864 57.6347 189.44 58.489C189.017 59.3216 188.467 60.0816 187.81 60.7407C187.155 61.4131 186.396 61.9742 185.565 62.4023C184.722 62.8345 183.82 63.1357 182.888 63.2957C181.897 63.4598 180.894 63.5484 179.889 63.5607C179.419 63.5718 178.927 63.5781 178.449 63.5781L176.71 63.5814L13.5496 63.5781Z" fill="black"/>
<path d="M39.7409 32.9885C39.7582 31.6322 40.1139 30.3023 40.775 29.1227C41.4361 27.943 42.3811 26.9518 43.522 26.2414C42.7972 25.193 41.841 24.3303 40.7294 23.7216C39.6178 23.113 38.3813 22.7752 37.1182 22.7352C34.4239 22.4488 31.8119 24.368 30.4389 24.368C29.0394 24.368 26.9254 22.7636 24.6491 22.8111C23.1767 22.8592 21.7417 23.2929 20.484 24.0697C19.2263 24.8466 18.1887 25.9401 17.4723 27.2439C14.3692 32.685 16.6839 40.6817 19.6564 45.08C21.1436 47.2337 22.8817 49.6394 25.156 49.5541C27.3815 49.4606 28.2127 48.1168 30.8991 48.1168C33.5606 48.1168 34.3404 49.5541 36.6608 49.4999C39.0489 49.4606 40.5535 47.3366 41.9885 45.1625C43.0571 43.6279 43.8794 41.9319 44.4248 40.1372C43.0374 39.5429 41.8534 38.5481 41.0205 37.2768C40.1876 36.0056 39.7426 34.5142 39.7409 32.9885Z" fill="white"/>
<path d="M35.3574 19.8432C36.6595 18.2601 37.301 16.2253 37.1456 14.1709C35.1563 14.3825 33.3188 15.3454 31.9991 16.8678C31.3539 17.6115 30.8597 18.4767 30.5448 19.4139C30.2299 20.3512 30.1005 21.3421 30.164 22.33C31.159 22.3404 32.1434 22.122 33.043 21.6912C33.9425 21.2604 34.7339 20.6286 35.3574 19.8432Z" fill="white"/>
<path d="M67.8732 44.101H60.2785L58.4546 49.5552H55.2378L62.4314 29.376H65.7735L72.9671 49.5552H69.6954L67.8732 44.101ZM61.065 41.5841H67.0851L64.1174 32.7323H64.0344L61.065 41.5841Z" fill="white"/>
<path d="M88.5023 42.1991C88.5023 46.771 86.0861 49.7084 82.44 49.7084C81.5164 49.7573 80.5978 49.5419 79.7895 49.0866C78.9811 48.6314 78.3157 47.9548 77.8694 47.1344H77.8004V54.4215H74.8186V34.8422H77.7049V37.2892H77.7597C78.2265 36.4727 78.9032 35.7997 79.7177 35.3417C80.5322 34.8837 81.454 34.6578 82.3851 34.6883C86.072 34.6883 88.5023 37.6399 88.5023 42.1991ZM85.4374 42.1991C85.4374 39.2205 83.9175 37.2622 81.5986 37.2622C79.3203 37.2622 77.7879 39.2618 77.7879 42.1991C77.7879 45.1635 79.3203 47.1487 81.5986 47.1487C83.9176 47.1487 85.4374 45.2048 85.4374 42.1991Z" fill="white"/>
<path d="M104.491 42.1991C104.491 46.771 102.075 49.7084 98.429 49.7084C97.5054 49.7573 96.5868 49.5418 95.7785 49.0866C94.9701 48.6314 94.3047 47.9548 93.8584 47.1344H93.7894V54.4215H90.8076V34.8422H93.6938V37.2892H93.7487C94.2155 36.4727 94.8921 35.7996 95.7066 35.3416C96.5211 34.8836 97.443 34.6578 98.3741 34.6883C102.061 34.6883 104.491 37.6399 104.491 42.1991ZM101.426 42.1991C101.426 39.2205 99.9066 37.2622 97.5876 37.2622C95.3093 37.2622 93.7769 39.2617 93.7769 42.1991C93.7769 45.1635 95.3093 47.1487 97.5876 47.1487C99.9066 47.1487 101.426 45.2047 101.426 42.1991H101.426Z" fill="white"/>
<path d="M115.059 43.9333C115.28 45.9344 117.199 47.2483 119.822 47.2483C122.336 47.2483 124.144 45.9344 124.144 44.13C124.144 42.5637 123.053 41.6259 120.471 40.9832L117.889 40.3532C114.23 39.4581 112.532 37.7252 112.532 34.9132C112.532 31.4315 115.527 29.04 119.782 29.04C123.992 29.04 126.878 31.4315 126.975 34.9132H123.965C123.785 32.8994 122.141 31.6838 119.739 31.6838C117.337 31.6838 115.693 32.9137 115.693 34.7037C115.693 36.1304 116.743 36.9699 119.311 37.6125L121.507 38.1584C125.595 39.1375 127.293 40.8007 127.293 43.7523C127.293 47.5275 124.324 49.892 119.601 49.892C115.183 49.892 112.199 47.5831 112.007 43.9332L115.059 43.9333Z" fill="white"/>
<path d="M133.728 31.3613V34.843H136.49V37.2345H133.728V45.3452C133.728 46.6052 134.281 47.1924 135.495 47.1924C135.823 47.1866 136.151 47.1633 136.476 47.1225V49.4997C135.93 49.603 135.375 49.6498 134.82 49.6394C131.879 49.6394 130.732 48.5206 130.732 45.6673V37.2345H128.62V34.843H130.732V31.3613H133.728Z" fill="white"/>
<path d="M138.09 42.1999C138.09 37.5709 140.782 34.6621 144.98 34.6621C149.192 34.6621 151.871 37.5709 151.871 42.1999C151.871 46.8417 149.206 49.7378 144.98 49.7378C140.756 49.7378 138.09 46.8417 138.09 42.1999ZM148.833 42.1999C148.833 39.0245 147.396 37.1504 144.98 37.1504C142.564 37.1504 141.129 39.0388 141.129 42.1999C141.129 45.3881 142.564 47.2479 144.98 47.2479C147.396 47.2479 148.833 45.3881 148.833 42.1999H148.833Z" fill="white"/>
<path d="M154.33 34.8421H157.174V37.3462H157.243C157.435 36.5641 157.888 35.8729 158.524 35.3889C159.16 34.9048 159.942 34.6573 160.737 34.6881C161.081 34.6869 161.423 34.7247 161.758 34.8008V37.6255C161.325 37.4912 160.872 37.4296 160.419 37.443C159.986 37.4252 159.554 37.5026 159.153 37.6697C158.752 37.8369 158.392 38.09 158.096 38.4116C157.801 38.7331 157.578 39.1156 157.443 39.5327C157.307 39.9498 157.263 40.3916 157.312 40.8279V49.5543H154.33L154.33 34.8421Z" fill="white"/>
<path d="M175.506 45.2341C175.105 47.9049 172.537 49.7378 169.251 49.7378C165.026 49.7378 162.403 46.8702 162.403 42.2698C162.403 37.655 165.04 34.6621 169.126 34.6621C173.145 34.6621 175.673 37.4582 175.673 41.9191V42.9537H165.413V43.1362C165.365 43.6777 165.432 44.2231 165.609 44.7364C165.786 45.2496 166.068 45.7189 166.438 46.113C166.808 46.5072 167.256 46.8172 167.753 47.0224C168.25 47.2276 168.784 47.3235 169.32 47.3035C170.025 47.3703 170.732 47.205 171.337 46.8322C171.941 46.4594 172.41 45.8989 172.675 45.2341L175.506 45.2341ZM165.427 40.8431H172.689C172.716 40.3563 172.643 39.8691 172.475 39.4121C172.307 38.9552 172.048 38.5383 171.713 38.1877C171.379 37.8371 170.976 37.5603 170.531 37.3747C170.086 37.1891 169.607 37.0987 169.126 37.1091C168.641 37.1062 168.159 37.2007 167.71 37.3871C167.261 37.5736 166.852 37.8483 166.508 38.1955C166.164 38.5426 165.892 38.9553 165.706 39.4098C165.52 39.8642 165.425 40.3514 165.427 40.8432V40.8431Z" fill="white"/>
<path d="M60.6922 14.1887C61.3174 14.1433 61.9447 14.239 62.5289 14.4688C63.1131 14.6986 63.6397 15.0569 64.0706 15.5178C64.5016 15.9787 64.8261 16.5307 65.0209 17.134C65.2157 17.7373 65.2759 18.3769 65.197 19.0066C65.197 22.1043 63.544 23.8849 60.6922 23.8849H57.2341V14.1887H60.6922ZM58.7211 22.5136H60.5261C60.9728 22.5407 61.4199 22.4665 61.8347 22.2965C62.2495 22.1265 62.6217 21.8649 62.9241 21.5309C63.2266 21.1969 63.4517 20.7987 63.583 20.3655C63.7143 19.9322 63.7487 19.4747 63.6834 19.0264C63.7439 18.5798 63.7061 18.1251 63.5728 17.6951C63.4394 17.265 63.2138 16.8701 62.912 16.5387C62.6103 16.2073 62.2399 15.9476 61.8274 15.7782C61.4149 15.6089 60.9706 15.534 60.5261 15.559H58.7211V22.5136Z" fill="white"/>
<path d="M66.877 20.2234C66.8315 19.7425 66.8859 19.2573 67.0364 18.799C67.187 18.3406 67.4305 17.9192 67.7513 17.5617C68.0721 17.2042 68.4631 16.9186 68.8993 16.7232C69.3355 16.5277 69.8072 16.4268 70.2842 16.4268C70.7611 16.4268 71.2328 16.5277 71.669 16.7232C72.1052 16.9186 72.4962 17.2042 72.817 17.5617C73.1378 17.9192 73.3813 18.3406 73.5319 18.799C73.6825 19.2573 73.7368 19.7425 73.6913 20.2234C73.7376 20.7047 73.684 21.1906 73.5338 21.6497C73.3836 22.1088 73.1403 22.531 72.8194 22.8892C72.4985 23.2473 72.1072 23.5336 71.6706 23.7294C71.2339 23.9253 70.7617 24.0265 70.2842 24.0265C69.8066 24.0265 69.3344 23.9253 68.8977 23.7294C68.4611 23.5336 68.0698 23.2473 67.7489 22.8892C67.428 22.531 67.1847 22.1088 67.0345 21.6497C66.8843 21.1906 66.8307 20.7047 66.877 20.2234ZM72.2247 20.2234C72.2247 18.6373 71.5212 17.7097 70.2865 17.7097C69.0471 17.7097 68.3499 18.6373 68.3499 20.2234C68.3499 21.8222 69.0471 22.7426 70.2865 22.7426C71.5212 22.7426 72.2247 21.8158 72.2247 20.2234H72.2247Z" fill="white"/>
<path d="M82.7494 23.8846H81.2703L79.7771 18.4955H79.6642L78.1773 23.8846H76.7122L74.7207 16.5674H76.1669L77.4612 22.1509H77.5677L79.0532 16.5674H80.421L81.9064 22.1509H82.0193L83.3072 16.5674H84.7331L82.7494 23.8846Z" fill="white"/>
<path d="M86.4075 16.5674H87.7801V17.7298H87.8866C88.0674 17.3123 88.3722 16.9623 88.7587 16.7286C89.1452 16.495 89.594 16.3892 90.0427 16.4261C90.3942 16.3994 90.7472 16.4531 91.0755 16.5832C91.4037 16.7134 91.6989 16.9167 91.9391 17.178C92.1792 17.4394 92.3582 17.7522 92.4629 18.0931C92.5675 18.4341 92.595 18.7945 92.5434 19.1477V23.8846H91.1175V19.5103C91.1175 18.3344 90.613 17.7496 89.5585 17.7496C89.3198 17.7384 89.0815 17.7795 88.86 17.8703C88.6385 17.961 88.439 18.0991 88.2751 18.2753C88.1113 18.4514 87.987 18.6613 87.9107 18.8907C87.8344 19.12 87.8081 19.3633 87.8333 19.604V23.8847H86.4075L86.4075 16.5674Z" fill="white"/>
<path d="M94.8159 13.7109H96.2418V23.8846H94.8159V13.7109Z" fill="white"/>
<path d="M98.2246 20.2235C98.1792 19.7426 98.2335 19.2574 98.3841 18.799C98.5347 18.3406 98.7783 17.9192 99.0991 17.5617C99.4199 17.2042 99.811 16.9186 100.247 16.7232C100.683 16.5277 101.155 16.4268 101.632 16.4268C102.109 16.4268 102.581 16.5277 103.017 16.7232C103.453 16.9186 103.844 17.2042 104.165 17.5617C104.486 17.9192 104.73 18.3406 104.88 18.799C105.031 19.2574 105.085 19.7426 105.04 20.2235C105.086 20.7049 105.032 21.1907 104.882 21.6498C104.732 22.1089 104.488 22.5311 104.168 22.8893C103.847 23.2475 103.455 23.5337 103.019 23.7295C102.582 23.9254 102.11 24.0266 101.632 24.0266C101.155 24.0266 100.682 23.9254 100.246 23.7295C99.8091 23.5337 99.4177 23.2475 99.0968 22.8893C98.7759 22.5311 98.5325 22.1089 98.3823 21.6498C98.2321 21.1907 98.1783 20.7049 98.2246 20.2235ZM103.572 20.2235C103.572 18.6374 102.869 17.7098 101.634 17.7098C100.395 17.7098 99.6975 18.6374 99.6975 20.2235C99.6975 21.8223 100.395 22.7427 101.634 22.7427C102.869 22.7427 103.572 21.816 103.572 20.2235H103.572Z" fill="white"/>
<path d="M106.54 21.8159C106.54 20.4988 107.509 19.7394 109.227 19.6315L111.185 19.5173V18.8857C111.185 18.1128 110.68 17.6764 109.705 17.6764C108.909 17.6764 108.358 17.9724 108.2 18.4897H106.819C106.965 17.2329 108.132 16.4268 109.771 16.4268C111.583 16.4268 112.604 17.34 112.604 18.8857V23.8852H111.232V22.8569H111.119C110.89 23.2258 110.568 23.5265 110.187 23.7283C109.806 23.9302 109.378 24.0259 108.949 24.0058C108.645 24.0378 108.339 24.005 108.049 23.9096C107.759 23.8142 107.492 23.6583 107.265 23.452C107.038 23.2457 106.856 22.9935 106.731 22.7117C106.607 22.4299 106.541 22.1247 106.54 21.8159ZM111.185 21.1907V20.5789L109.42 20.6932C108.425 20.7606 107.974 21.1034 107.974 21.7485C107.974 22.407 108.538 22.7903 109.314 22.7903C109.541 22.8136 109.771 22.7903 109.989 22.7219C110.207 22.6535 110.409 22.5414 110.584 22.3921C110.758 22.2429 110.902 22.0596 111.005 21.8532C111.108 21.6468 111.169 21.4215 111.185 21.1907Z" fill="white"/>
<path d="M114.478 20.2229C114.478 17.9107 115.652 16.446 117.477 16.446C117.929 16.4249 118.377 16.5345 118.769 16.7618C119.162 16.9891 119.482 17.3249 119.693 17.7298H119.799V13.7109H121.225V23.8846H119.859V22.7286H119.746C119.519 23.1307 119.187 23.4623 118.788 23.6873C118.388 23.9124 117.934 24.0223 117.477 24.0052C115.639 24.0053 114.478 22.5406 114.478 20.2229ZM115.951 20.2229C115.951 21.7749 116.674 22.7088 117.882 22.7088C119.083 22.7088 119.826 21.7614 119.826 20.2292C119.826 18.7042 119.076 17.7433 117.882 17.7433C116.681 17.7433 115.951 18.6836 115.951 20.2229H115.951Z" fill="white"/>
<path d="M127.124 20.2234C127.078 19.7425 127.132 19.2573 127.283 18.799C127.434 18.3406 127.677 17.9192 127.998 17.5617C128.319 17.2042 128.71 16.9186 129.146 16.7232C129.582 16.5277 130.054 16.4268 130.531 16.4268C131.008 16.4268 131.479 16.5277 131.916 16.7232C132.352 16.9186 132.743 17.2042 133.064 17.5617C133.384 17.9192 133.628 18.3406 133.778 18.799C133.929 19.2573 133.983 19.7425 133.938 20.2234C133.984 20.7047 133.931 21.1906 133.78 21.6497C133.63 22.1088 133.387 22.531 133.066 22.8892C132.745 23.2473 132.354 23.5336 131.917 23.7294C131.481 23.9253 131.008 24.0265 130.531 24.0265C130.053 24.0265 129.581 23.9253 129.144 23.7294C128.708 23.5336 128.316 23.2473 127.995 22.8892C127.675 22.531 127.431 22.1088 127.281 21.6497C127.131 21.1906 127.077 20.7047 127.124 20.2234ZM132.471 20.2234C132.471 18.6373 131.768 17.7097 130.533 17.7097C129.294 17.7097 128.596 18.6373 128.596 20.2234C128.596 21.8222 129.294 22.7426 130.533 22.7426C131.768 22.7426 132.471 21.8158 132.471 20.2234Z" fill="white"/>
<path d="M135.852 16.5674H137.225V17.7298H137.331C137.512 17.3123 137.817 16.9623 138.204 16.7286C138.59 16.495 139.039 16.3892 139.487 16.4261C139.839 16.3994 140.192 16.4531 140.52 16.5832C140.849 16.7134 141.144 16.9167 141.384 17.178C141.624 17.4394 141.803 17.7522 141.908 18.0931C142.012 18.4341 142.04 18.7945 141.988 19.1477V23.8846H140.562V19.5103C140.562 18.3344 140.058 17.7496 139.003 17.7496C138.765 17.7384 138.526 17.7795 138.305 17.8703C138.083 17.961 137.884 18.0991 137.72 18.2753C137.556 18.4514 137.432 18.6613 137.356 18.8907C137.279 19.12 137.253 19.3633 137.278 19.604V23.8847H135.852V16.5674Z" fill="white"/>
<path d="M150.045 14.7461V16.6012H151.61V17.8176H150.045V21.5801C150.045 22.3466 150.357 22.6823 151.067 22.6823C151.248 22.6817 151.43 22.6705 151.61 22.6489V23.8518C151.354 23.8982 151.095 23.9229 150.835 23.9256C149.249 23.9256 148.618 23.3606 148.618 21.9499V17.8175H147.471V16.6011H148.618V14.7461H150.045Z" fill="white"/>
<path d="M153.558 13.7109H154.971V17.7433H155.084C155.273 17.3219 155.587 16.9699 155.981 16.7354C156.375 16.5008 156.831 16.395 157.287 16.4325C157.636 16.4132 157.986 16.4724 158.311 16.6057C158.635 16.739 158.927 16.9432 159.164 17.2038C159.402 17.4643 159.58 17.7748 159.685 18.113C159.791 18.4512 159.822 18.8089 159.775 19.1604V23.8847H158.348V19.5167C158.348 18.3479 157.81 17.756 156.803 17.756C156.558 17.7356 156.311 17.7697 156.08 17.8559C155.85 17.9422 155.64 18.0784 155.467 18.2551C155.294 18.4318 155.161 18.6447 155.077 18.8789C154.994 19.1131 154.962 19.363 154.984 19.6111V23.8846H153.558L153.558 13.7109Z" fill="white"/>
<path d="M168.089 21.9097C167.895 22.5784 167.475 23.1569 166.903 23.5439C166.331 23.9309 165.642 24.1017 164.958 24.0266C164.482 24.0393 164.009 23.947 163.572 23.756C163.135 23.565 162.744 23.28 162.426 22.9206C162.109 22.5613 161.872 22.1362 161.733 21.675C161.594 21.2138 161.556 20.7275 161.621 20.2498C161.557 19.7706 161.596 19.2832 161.735 18.8206C161.874 18.358 162.109 17.931 162.425 17.5685C162.741 17.206 163.13 16.9165 163.566 16.7195C164.002 16.5226 164.474 16.4228 164.952 16.4269C166.962 16.4269 168.175 17.8179 168.175 20.1156V20.6195H163.073V20.7005C163.051 20.969 163.084 21.2393 163.171 21.494C163.258 21.7487 163.396 21.9822 163.577 22.1796C163.759 22.377 163.978 22.5338 164.223 22.6401C164.467 22.7463 164.731 22.7997 164.997 22.7967C165.338 22.8382 165.684 22.776 165.99 22.618C166.296 22.46 166.549 22.2135 166.716 21.9096L168.089 21.9097ZM163.073 19.5515H166.722C166.74 19.3059 166.707 19.0593 166.626 18.8273C166.544 18.5954 166.415 18.3834 166.248 18.2049C166.08 18.0264 165.878 17.8853 165.653 17.7908C165.429 17.6962 165.187 17.6503 164.944 17.6559C164.697 17.6528 164.453 17.6997 164.224 17.7939C163.996 17.888 163.788 18.0275 163.614 18.2042C163.44 18.3809 163.302 18.5911 163.209 18.8225C163.116 19.0539 163.07 19.3018 163.073 19.5515H163.073Z" fill="white"/>
</g>
<defs>
<clipPath id="clip0_414_2323">
<rect width="192" height="65" fill="white"/>
</clipPath>
</defs>
</svg>
